<svg xmlns="http://www.w3.org/2000/svg" width="58.255" height="19.464"><g fill="#003d52" stroke="rgba(0,0,0,0)" stroke-miterlimit="10"><path d="M25.31 18.697h-4.622L23.579.823H28.2ZM42.063 1.261A11.393 11.393 0 0 0 37.918.5c-4.564 0-7.778 2.434-7.8 5.914-.038 2.567 2.3 3.993 4.05 4.848 1.788.875 2.4 1.446 2.4 2.225-.018 1.2-1.445 1.75-2.775 1.75a9.2 9.2 0 0 1-4.336-.951l-.609-.285-.646 4.012a14.07 14.07 0 0 0 5.154.951c4.849 0 8.006-2.4 8.044-6.1.019-2.035-1.217-3.594-3.88-4.868-1.616-.818-2.606-1.37-2.606-2.206.018-.761.837-1.54 2.662-1.54a7.851 7.851 0 0 1 3.442.684l.418.19.628-3.86ZM48.207 12.366c.381-1.027 1.845-5 1.845-5-.019.038.38-1.045.608-1.711l.323 1.54s.876 4.278 1.065 5.172Zm5.7-11.542h-3.575a2.28 2.28 0 0 0-2.415 1.483l-6.866 16.39h4.85s.8-2.205.969-2.681h5.934c.132.627.551 2.681.551 2.681h4.279L53.905.824ZM16.828.824l-4.526 12.188-.5-2.472a13.679 13.679 0 0 0-6.39-7.492l4.152 15.631h4.887L21.715.825Z"/><path d="M8.1.824H.664l-.076.361c5.8 1.483 9.641 5.058 11.22 9.355l-1.616-8.215A1.912 1.912 0 0 0 8.1.825Z" opacity=".43"/></g></svg>