<svg xmlns="http://www.w3.org/2000/svg" width="91.789" height="18.648"><g fill="#003d52" stroke="rgba(0,0,0,0)" stroke-miterlimit="10"><path data-name="Path 2515" d="M34.352 9.787V2.604a.934.934 0 0 1 .41-.931 1.028 1.028 0 0 1 1.574.95c-.01 1.185-.029 2.371-.043 3.556v.294c.014.685.31.876.911.571a6.674 6.674 0 0 1 2.509-.773 5.682 5.682 0 0 1 4.451 1.468 5.722 5.722 0 0 1 1.941 5.285 5.766 5.766 0 0 1-2.564 4.045 5.719 5.719 0 0 1-4.379.956 8.931 8.931 0 0 1-2.111-.83.485.485 0 0 0-.716.17 3.541 3.541 0 0 1-.308.38 1.074 1.074 0 0 1-1.1.307.952.952 0 0 1-.568-.916c-.017-.315-.014-.631-.014-.947v-6.4ZM40.288 8.3a3.905 3.905 0 0 0-3.93 3.911 4 4 0 0 0 3.9 3.882 3.966 3.966 0 0 0 3.9-3.959 3.877 3.877 0 0 0-3.87-3.83Z"/><path data-name="Path 2516" d="M3.776 13.629c0-1.132-.042-2.266.012-3.4a4 4 0 0 1 1.456-2.827 4.679 4.679 0 0 1 6.005-.071c.1.084.208.158.313.237a.42.42 0 0 0 .542.013c.15-.108.3-.214.445-.331a4.687 4.687 0 0 1 6.823 1.169 4.121 4.121 0 0 1 .65 2.253c-.024 2.089 0 4.179.008 6.269a1.03 1.03 0 0 1-.972 1 .913.913 0 0 1-.969-.849c-.039-.444-.05-.891-.047-1.337.01-1.611.044-3.221.042-4.832a2.7 2.7 0 0 0-2.79-2.676 2.622 2.622 0 0 0-2.415 2.764c.064.779.036 1.566.04 2.349.006 1.045.012 2.091 0 3.136a1.409 1.409 0 0 1-.475 1.258.965.965 0 0 1-1.509-.613c-.015-.195-.036-.39-.035-.585.007-1.818.02-3.636.027-5.454a2.869 2.869 0 0 0-2.13-2.8 2.651 2.651 0 0 0-2.522.969 2.638 2.638 0 0 0-.576 1.727c.023 1.447.04 2.895.037 4.342a15.446 15.446 0 0 1-.1 1.85.924.924 0 0 1-1.065.742.866.866 0 0 1-.791-.977c.009-1.11 0-2.221 0-3.331Z"/><path data-name="Path 2517" d="M91.289 9.856v7.318a1.07 1.07 0 0 1-.636.837.952.952 0 0 1-1.043-.249c-.107-.137-.2-.282-.3-.425-.252-.362-.376-.393-.756-.17a5.966 5.966 0 0 1-3.778.874 5.682 5.682 0 0 1-4.675-3.326 6.542 6.542 0 0 1-.482-1.881 5.622 5.622 0 0 1 .227-2.636 5.223 5.223 0 0 1 2.531-3.115 5.969 5.969 0 0 1 5.193-.39 6.055 6.055 0 0 1 .719.381c.628.337 1.052.079 1.05-.628v-3.92a.99.99 0 0 1 .99-1 1.036 1.036 0 0 1 .951 1.013v7.318Zm-1.95 2.317a3.917 3.917 0 0 0-3.861-3.912 3.908 3.908 0 0 0-3.988 3.927 4 4 0 0 0 3.874 3.907 3.936 3.936 0 0 0 3.975-3.922Z" opacity=".43"/><path data-name="Path 2518" d="M73.562 6.319a5.748 5.748 0 0 1 4.582 2.034 1.155 1.155 0 0 1-.136 1.881c-1.454 1.014-2.893 2.05-4.334 3.081-.655.468-1.309.938-1.95 1.426-.426.325-.4.587.058.875a3.4 3.4 0 0 0 2.285.436 4.132 4.132 0 0 0 3.046-2.122 5.516 5.516 0 0 0 .411-1.131c.179-.491.517-.652 1.167-.565a.9.9 0 0 1 .638.815 3.365 3.365 0 0 1-.62 2.024 5.5 5.5 0 0 1-2.759 2.5 5.8 5.8 0 0 1-5.536-.409 5.554 5.554 0 0 1-2.662-4.313 5.68 5.68 0 0 1 2.139-5.3 5.294 5.294 0 0 1 3.671-1.232Zm.176 1.888a4.019 4.019 0 0 0-3.9 2.91 2.734 2.734 0 0 0-.075 1.731.457.457 0 0 0 .758.279c.158-.1.31-.2.46-.308.925-.649 1.853-1.3 2.772-1.95.567-.4 1.131-.81 1.683-1.233.452-.346.431-.667-.058-.968a3.6 3.6 0 0 0-1.638-.457Z" opacity=".43"/><path data-name="Path 2519" d="M27.086 6.258a5.859 5.859 0 0 1 6.018 5.444 5.925 5.925 0 0 1-5.958 6.4 5.974 5.974 0 0 1-5.9-5.889 5.871 5.871 0 0 1 5.84-5.955Zm.137 2.042a3.812 3.812 0 0 0-3.905 3.881 3.867 3.867 0 0 0 3.7 3.893 3.855 3.855 0 0 0 4.076-3.862 3.788 3.788 0 0 0-3.871-3.908Z"/><path data-name="Path 2520" d="M56.189 6.307a5.259 5.259 0 0 1 2.856.845.96.96 0 0 1 .5 1.259.99.99 0 0 1-1.327.533 11.194 11.194 0 0 0-1.729-.649 3.354 3.354 0 0 0-3.007.811 3.831 3.831 0 0 0-1.458 3.149 3.847 3.847 0 0 0 1.977 3.293 3.625 3.625 0 0 0 3.315.281c.281-.11.538-.284.812-.417a1.021 1.021 0 0 1 1.13.122.9.9 0 0 1 .281 1.087 1.366 1.366 0 0 1-.439.505 5.275 5.275 0 0 1-2.587.91 5.733 5.733 0 0 1-4.87-1.808 5.25 5.25 0 0 1-1.3-2.272 5.848 5.848 0 0 1 1.794-6.331 5.733 5.733 0 0 1 4.052-1.318Z" opacity=".43"/><path data-name="Path 2521" d="M60.859 12.187c0-1.643.005-3.286 0-4.929a.873.873 0 0 1 .506-.876.9.9 0 0 1 .959.089.96.96 0 0 0 1.051.136 4.164 4.164 0 0 1 4.216.627c.225.17.244.294.031.48-.3.264-.577.561-.892.809a.743.743 0 0 1-.474.116 1.153 1.153 0 0 1-.45-.174 2.078 2.078 0 0 0-2.965 1.731c.053 2.109.015 4.22 0 6.33a3.006 3.006 0 0 1-.147.86.934.934 0 0 1-1.125.659.873.873 0 0 1-.694-.962v-4.9Z" opacity=".43"/><path data-name="Path 2522" d="M47.317 12.169V7.143a.855.855 0 0 1 .679-.845 1.068 1.068 0 0 1 1.256.632 1.636 1.636 0 0 1 .083.511c0 3.123.01 6.247-.009 9.37a1.831 1.831 0 0 1-.262.908.961.961 0 0 1-1.135.333 1 1 0 0 1-.6-.953V12.17Z"/><path data-name="Path 2523" d="M12.618 3.722a3.57 3.57 0 0 1-.686-.33 6.73 6.73 0 0 0-2.1-1 6.9 6.9 0 0 0-3-.2 5.394 5.394 0 0 0-3.143 1.384c-.557.531-1.068 1.109-1.6 1.667-.075.079-.144.164-.224.237-.367.337-.693.362-1.012.081a.872.872 0 0 1-.15-1.125 8.38 8.38 0 0 1 4.5-3.492A8.739 8.739 0 0 1 9.941.749a8.909 8.909 0 0 1 3 1.391c.613.425.689 1.023.141 1.41a2.205 2.205 0 0 1-.464.172Z"/><path data-name="Path 2524" d="M7.908 3.333a7.144 7.144 0 0 1 4.328 1.355.749.749 0 0 1 .276 1.027.787.787 0 0 1-1.1.311c-.512-.259-1-.58-1.528-.794a5.138 5.138 0 0 0-5.969 1.759 3.267 3.267 0 0 1-.459.546.732.732 0 0 1-1.01.034.748.748 0 0 1-.136-.982A10.509 10.509 0 0 1 3.541 5.08a6.592 6.592 0 0 1 4.367-1.747Z"/><path data-name="Path 2525" d="M47.089 3.505a1.2 1.2 0 0 1 1.241-1.248 1.342 1.342 0 0 1 1.243 1.337 1.294 1.294 0 0 1-1.366 1.2 1.161 1.161 0 0 1-1.118-1.289Z"/></g></svg>