<svg xmlns="http://www.w3.org/2000/svg" width="97.285" height="20.823"><g data-name="Group 4938" fill="#003d52" stroke="rgba(0,0,0,0)" stroke-miterlimit="10"><path data-name="Path 2530" d="M96.688.505c-.145.787-.279 1.522-.416 2.258-.06.322-.143.642-.185.966-.034.268-.137.371-.424.368-1.493-.015-2.984 0-4.477-.014-.3 0-.408.093-.461.378q-1.217 6.53-2.451 13.055c-.149.794-.294 1.589-.446 2.408H83.7l2.966-15.792a3.6 3.6 0 0 0-.386-.041q-4.581 0-9.164-.005c-.231 0-.367.042-.416.3-.247 1.312-.511 2.621-.765 3.931a2.3 2.3 0 0 0-.018.3h6.755c-.124.651-.237 1.267-.356 1.88-.083.425-.2.846-.25 1.274-.037.3-.174.348-.438.347-1.986-.009-3.971 0-5.957-.013-.348 0-.476.09-.54.446-.427 2.374-.883 4.744-1.328 7.115-.03.162-.068.284-.279.283-1.257-.007-2.514-.005-3.771-.008a.511.511 0 0 1-.123-.041l.646-3.416q1.074-5.662 2.151-11.324c.274-1.438.561-2.875.814-4.317.052-.292.167-.349.434-.348q4.74.012 9.481.005h13.532Zm-35.2 15.938a1.723 1.723 0 0 1 0-.25c.262-1.38.532-2.759.784-4.142.051-.283.158-.374.454-.371 1.962.016 3.923.008 5.885.008h.4l.657-3.464h-6.614a.841.841 0 0 1-.013-.162c.238-1.229.48-2.458.712-3.69.047-.252.133-.372.427-.37 2.2.014 4.393.007 6.589.007h.412l.674-3.47a2.688 2.688 0 0 0-.284-.033H60.648c-.209 0-.307.057-.349.284-.339 1.831-.7 3.658-1.043 5.487l-2.3 12.115c-.1.51-.187 1.021-.282 1.539h11.9l.651-3.483Zm-19.41-9.6h14.3a.724.724 0 0 0 .244-.006c.082-.032.194-.1.212-.165.083-.323.137-.654.209-1.017-.206-.009-.367-.023-.528-.023H42.994c-.372 0-.845-.1-1.085.089-.22.171-.187.666-.264 1.019a.612.612 0 0 0 .025.1ZM57.29 4.271l.223-1.191H45.932l-.231 1.191Zm-7.362-2.518h5.073c.833 0 1.668.005 2.5-.007.1 0 .269-.078.287-.15.089-.345.138-.7.208-1.086h-4.484c-1.151 0-2.3 0-3.452.006-.118 0-.314.064-.335.139-.1.344-.15.7-.227 1.1Z" opacity=".43"/><path data-name="Path 2531" d="M37.586 20.09h-2.421c.034-.55.066-1.079.1-1.608a13.886 13.886 0 0 1-1.048 1.13 2.817 2.817 0 0 1-2.432.656 2.66 2.66 0 0 1-2.167-2.525 5.958 5.958 0 0 1 5.956-6.684 10.919 10.919 0 0 1 2.86.3c.135.033.268.075.428.12-.499 2.865-1.355 5.659-1.276 8.611Zm-1.638-6.955a2.167 2.167 0 0 0-1.944.3 4 4 0 0 0-1.653 3.673 1.066 1.066 0 0 0 .671 1.028 1.193 1.193 0 0 0 1.257-.331 3.009 3.009 0 0 0 .906-1.484c.279-1.041.505-2.095.759-3.186Zm11.645 6.612c.273-1.429.563-2.854.809-4.288a12.922 12.922 0 0 0 .231-2.165 2.041 2.041 0 0 0-1.855-2.223 3.654 3.654 0 0 0-3.284 1.33c-.068.08-.136.157-.251.288l.162-1.437c-.745 0-1.448-.009-2.149.013-.076 0-.193.174-.212.281-.166.912-.3 1.829-.468 2.74-.353 1.926-.719 3.849-1.089 5.819.784 0 1.544-.01 2.3.006.25.005.341-.07.386-.32q.328-1.853.7-3.7a4.333 4.333 0 0 1 1.295-2.558 1.161 1.161 0 0 1 1.3-.279c.466.212.444.672.444 1.1a.443.443 0 0 1-.006.071c-.155.936-.3 1.874-.468 2.808s-.351 1.887-.532 2.854h2.61c.028-.115.056-.227.077-.343Zm-34.449.365c.242 0 .312-.082.353-.309.242-1.338.532-2.669.747-4.011a17.43 17.43 0 0 0 .269-2.755 1.921 1.921 0 0 0-1.732-1.953 3.578 3.578 0 0 0-2.86.809c-.257.214-.5.446-.75.672l.144-1.286H7.033l-1.618 8.8h2.614c.2-1.051.393-2.078.585-3.1a7.474 7.474 0 0 1 .844-2.7 2.314 2.314 0 0 1 1.116-1.033.826.826 0 0 1 1.23.745 4.632 4.632 0 0 1-.067 1.154c-.291 1.64-.606 3.274-.923 4.966.806-.004 1.568-.013 2.33.002Zm38.523-8.86c-.315 0-.608-.01-.9.006-.088 0-.237.064-.249.122-.126.6-.23 1.214-.349 1.875h1.1c-.022.139-.034.231-.051.323-.26 1.442-.557 2.878-.771 4.326a1.813 1.813 0 0 0 1.348 2.291 4.6 4.6 0 0 0 2.264-.031.293.293 0 0 0 .192-.168c.135-.634.254-1.272.382-1.93-.358 0-.675.017-.988 0a.528.528 0 0 1-.505-.5 1.438 1.438 0 0 1-.007-.455c.217-1.224.44-2.445.678-3.665a.35.35 0 0 1 .264-.185c.315-.023.633-.009.95-.009.536 0 .54 0 .639-.512.1-.488.182-.978.281-1.51h-1.7c.195-1.022.382-2 .573-3.012h-2.554Zm-36.23 7.909c-.171.5-.175.513.316.712a6.13 6.13 0 0 0 3.422.319 3.75 3.75 0 0 0 2.145-1.046 2.5 2.5 0 0 0-.3-3.841c-.328-.242-.7-.418-1.053-.634a4.732 4.732 0 0 1-.724-.49.588.588 0 0 1 .134-1.017 1.763 1.763 0 0 1 .876-.184c.564.049 1.121.186 1.722.294l.591-1.772a4.673 4.673 0 0 0-2.176-.453 4.492 4.492 0 0 0-2.949.852 2.458 2.458 0 0 0-.409 3.7 8.734 8.734 0 0 0 1.265.878 5.953 5.953 0 0 1 .81.549.705.705 0 0 1-.271 1.233 1.867 1.867 0 0 1-.9.086c-.674-.125-1.334-.321-2.049-.5-.143.408-.296.861-.451 1.315Zm11.647-1.1a.532.532 0 0 1-.5-.54 1.588 1.588 0 0 1 0-.421c.228-1.278.463-2.555.7-3.858h1.9l.383-2h-1.875l.458-2.479a13 13 0 0 1-1.709.384c-.769.068-1.146.4-1.156 1.188 0 .286-.027.681-.2.827s-.573.061-.869.1c-.094.012-.241.086-.256.155-.127.594-.23 1.192-.348 1.833h1.115c-.125.652-.257 1.258-.354 1.868-.177 1.11-.385 2.218-.48 3.335a1.6 1.6 0 0 0 1.269 1.72 4.642 4.642 0 0 0 2.366-.006.315.315 0 0 0 .2-.192c.108-.62.2-1.245.3-1.91-.362-.002-.655.018-.945-.007ZM4.905 11.28H2.28L.605 20.095H3.23c.558-2.951 1.114-5.867 1.674-8.818Zm-2.25-2.379a1.2 1.2 0 0 0 1.26 1.259 1.44 1.44 0 0 0 1.554-1.458 1.218 1.218 0 0 0-1.3-1.3 1.46 1.46 0 0 0-1.515 1.496Z"/></g></svg>