<svg xmlns="http://www.w3.org/2000/svg" width="42.4" height="34.052"><g fill="#003d52" stroke="rgba(0,0,0,0)" stroke-miterlimit="10"><path data-name="Path 2009" d="M6.796 33.456v-2.344a1.394 1.394 0 0 0-1.292-1.487 1.58 1.58 0 0 0-.18 0 1.449 1.449 0 0 0-1.314.666 1.376 1.376 0 0 0-1.236-.666 1.239 1.239 0 0 0-1.094.556v-.469H.866v3.744h.822v-2.073a.874.874 0 0 1 .744-.987.918.918 0 0 1 .172-.007c.557 0 .814.351.814.986v2.081h.817v-2.073a.881.881 0 0 1 .761-.987.916.916 0 0 1 .155-.007c.541 0 .822.351.822.986v2.081Zm12.162-3.741h-1.33v-1.134h-.822v1.135h-.755v.744h.759v1.7c0 .869.336 1.386 1.3 1.386a1.907 1.907 0 0 0 1.017-.289l-.234-.7a1.5 1.5 0 0 1-.721.211c-.406 0-.541-.25-.541-.625v-1.684h1.33Zm6.943-.094a1.1 1.1 0 0 0-.986.549v-.455h-.806v3.741h.814v-2.1c0-.625.265-.963.8-.963a1.346 1.346 0 0 1 .509.094l.25-.767a1.771 1.771 0 0 0-.581-.099Zm-10.5.391a2.8 2.8 0 0 0-1.527-.391c-.947 0-1.563.455-1.563 1.2 0 .611.453.986 1.291 1.1l.383.055c.445.063.658.18.658.391 0 .289-.3.455-.853.455a2 2 0 0 1-1.25-.391l-.37.633a2.692 2.692 0 0 0 1.62.486c1.08 0 1.707-.509 1.707-1.221 0-.658-.494-1-1.307-1.119l-.383-.055c-.351-.047-.634-.117-.634-.367 0-.273.265-.438.712-.438a2.427 2.427 0 0 1 1.166.321Zm21.8-.391a1.1 1.1 0 0 0-.986.549v-.455h-.806v3.741h.814v-2.1c0-.625.266-.963.8-.963a1.347 1.347 0 0 1 .509.094l.25-.767a1.768 1.768 0 0 0-.576-.1Zm-10.483 1.964a1.89 1.89 0 0 0 1.811 1.966 1.743 1.743 0 0 0 .189 0 1.96 1.96 0 0 0 1.345-.447l-.391-.658a1.637 1.637 0 0 1-.978.336 1.2 1.2 0 0 1-1.113-1.281 1.2 1.2 0 0 1 1.113-1.113 1.65 1.65 0 0 1 .978.336l.391-.658a1.967 1.967 0 0 0-1.345-.447 1.891 1.891 0 0 0-2 1.775v.189Zm7.622 0v-1.874h-.814v.455a1.419 1.419 0 0 0-1.175-.549 1.966 1.966 0 0 0-1.876 2.053 1.967 1.967 0 0 0 1.876 1.875 1.416 1.416 0 0 0 1.181-.549v.453h.814Zm-3.028 0a1.133 1.133 0 0 1 1.2-1.062 1.133 1.133 0 0 1 1.062 1.2 1.132 1.132 0 0 1-1.126 1.064 1.121 1.121 0 0 1-1.132-1.11v-.089Zm-9.823-1.964a1.966 1.966 0 0 0-1.851 2.075 1.965 1.965 0 0 0 1.906 1.853 2.271 2.271 0 0 0 1.534-.525l-.4-.6a1.782 1.782 0 0 1-1.094.391 1.037 1.037 0 0 1-1.119-.916h2.786c.008-.1.015-.2.015-.312a1.789 1.789 0 0 0-1.606-1.955 1.515 1.515 0 0 0-.17-.009Zm-.016.728a.929.929 0 0 1 .947.908h-1.939a.962.962 0 0 1 .994-.908Zm20.416 1.236v-3.373h-.814v1.956a1.422 1.422 0 0 0-1.181-.548 1.967 1.967 0 0 0-1.876 2.053 1.967 1.967 0 0 0 1.876 1.875 1.421 1.421 0 0 0 1.186-.544v.453h.814Zm-3.025 0a1.133 1.133 0 0 1 1.2-1.062 1.133 1.133 0 0 1 1.062 1.2A1.132 1.132 0 0 1 40 32.787a1.121 1.121 0 0 1-1.132-1.11v-.089Zm-27.487 0v-1.874h-.814v.455a1.422 1.422 0 0 0-1.177-.544 1.967 1.967 0 0 0-1.876 2.053 1.967 1.967 0 0 0 1.876 1.875 1.418 1.418 0 0 0 1.187-.546v.453h.814Zm-3.028 0a1.133 1.133 0 0 1 1.2-1.062 1.133 1.133 0 0 1 1.062 1.2 1.132 1.132 0 0 1-1.126 1.064 1.121 1.121 0 0 1-1.137-1.1c.003-.038.003-.07.003-.102Z"/><path data-name="Path" d="M16.318 13.304a12.765 12.765 0 0 1 4.884-10.053A12.789 12.789 0 0 0 3.244 5.405a12.789 12.789 0 0 0 2.153 17.957 12.789 12.789 0 0 0 15.8 0 12.765 12.765 0 0 1-4.879-10.058Z" opacity=".43"/><path data-name="Path 2010" d="M41.897 13.304a12.791 12.791 0 0 1-12.794 12.787 12.786 12.786 0 0 1-7.9-2.733 12.789 12.789 0 0 0 2.153-17.957 12.776 12.776 0 0 0-2.153-2.154 12.789 12.789 0 0 1 17.958 2.149 12.8 12.8 0 0 1 2.736 7.908Z" opacity=".43"/><path data-name="Path 2010" d="M21.202 3.249a12.762 12.762 0 0 1 2.153 2.153 12.788 12.788 0 0 1-2.153 17.958 12.768 12.768 0 0 1-4.884-10.058 12.767 12.767 0 0 1 4.884-10.053"/></g></svg>